# MagicaVoxel @ Ephtracy

# group
o 

# material
mtllib Particle.mtl
usemtl palette

# normals
vn -1 0 0
vn 1 0 0
vn 0 0 1
vn 0 0 -1
vn 0 -1 0
vn 0 1 0

# texcoords
vt 0.279297 0.5
vt 0.841797 0.5
vt 0.876953 0.5
vt 0.982422 0.5
vt 0.994141 0.5

# verts
v -0.1 0 0
v -0.1 0 -0.1
v -0.1 0.1 0
v -0.1 0.1 -0.1
v -0.1 0.1 -0.2
v -0.1 0.2 0
v -0.1 0.2 -0.1
v -0.1 0.2 -0.2
v 0 0 0.1
v 0 0 0
v 0 0 -0.1
v 0 0 -0.2
v 0 0.1 0.1
v 0 0.1 0
v 0 0.1 -0.1
v 0 0.1 -0.2
v 0 0.2 0.1
v 0 0.2 0
v 0 0.2 -0.1
v 0 0.3 0.1
v 0 0.3 0
v 0 0.3 -0.1
v 0.1 0 0.1
v 0.1 0 0
v 0.1 0 -0.1
v 0.1 0 -0.2
v 0.1 0.1 0.1
v 0.1 0.1 0
v 0.1 0.1 -0.1
v 0.1 0.1 -0.2
v 0.1 0.2 0.1
v 0.1 0.2 0
v 0.1 0.2 -0.1
v 0.1 0.2 -0.2
v 0.1 0.3 0.1
v 0.1 0.3 0
v 0.2 0.1 0
v 0.2 0.1 -0.1
v 0.2 0.2 0
v 0.2 0.2 -0.1
v 0.2 0.3 0
v 0.2 0.3 -0.1
v 0 0 0.1
v 0 0.1 0.1
v 0 0.2 0.1
v 0 0.3 0.1
v 0.1 0 0.1
v 0.1 0.1 0.1
v 0.1 0.2 0.1
v 0.1 0.3 0.1
v -0.1 0 0
v -0.1 0.1 0
v -0.1 0.2 0
v 0 0 0
v 0 0.1 0
v 0 0.2 0
v 0.1 0.1 0
v 0.1 0.2 0
v 0.1 0.3 0
v 0.2 0.1 0
v 0.2 0.2 0
v 0.2 0.3 0
v -0.1 0 -0.1
v -0.1 0.1 -0.1
v 0 0 -0.1
v 0 0.1 -0.1
v 0 0.2 -0.1
v 0 0.3 -0.1
v 0.1 0.1 -0.1
v 0.1 0.2 -0.1
v 0.1 0.3 -0.1
v 0.2 0.1 -0.1
v 0.2 0.2 -0.1
v 0.2 0.3 -0.1
v -0.1 0.1 -0.2
v -0.1 0.2 -0.2
v 0 0 -0.2
v 0 0.1 -0.2
v 0 0.2 -0.2
v 0.1 0 -0.2
v 0.1 0.1 -0.2
v 0.1 0.2 -0.2
v 0 0 0.1
v 0.1 0 0.1
v -0.1 0 0
v 0 0 0
v 0.1 0 0
v -0.1 0 -0.1
v 0 0 -0.1
v 0.1 0 -0.1
v 0 0 -0.2
v 0.1 0 -0.2
v 0.1 0.1 0
v 0.2 0.1 0
v -0.1 0.1 -0.1
v 0 0.1 -0.1
v 0.1 0.1 -0.1
v 0.2 0.1 -0.1
v -0.1 0.1 -0.2
v 0 0.1 -0.2
v -0.1 0.2 0
v 0 0.2 0
v -0.1 0.2 -0.1
v 0 0.2 -0.1
v 0.1 0.2 -0.1
v -0.1 0.2 -0.2
v 0 0.2 -0.2
v 0.1 0.2 -0.2
v 0 0.3 0.1
v 0.1 0.3 0.1
v 0 0.3 0
v 0.1 0.3 0
v 0.2 0.3 0
v 0 0.3 -0.1
v 0.1 0.3 -0.1
v 0.2 0.3 -0.1

# faces
f 3/4/1 2/4/1 1/4/1
f 4/4/1 2/4/1 3/4/1
f 6/5/1 4/5/1 3/5/1
f 7/4/1 5/4/1 4/4/1
f 7/5/1 4/5/1 6/5/1
f 8/4/1 5/4/1 7/4/1
f 13/4/1 10/4/1 9/4/1
f 14/4/1 10/4/1 13/4/1
f 15/3/1 12/3/1 11/3/1
f 16/3/1 12/3/1 15/3/1
f 17/1/1 14/1/1 13/1/1
f 18/1/1 14/1/1 17/1/1
f 20/4/1 18/4/1 17/4/1
f 21/5/1 19/5/1 18/5/1
f 21/4/1 18/4/1 20/4/1
f 22/5/1 19/5/1 21/5/1
f 23/4/2 24/4/2 27/4/2
f 24/1/2 25/1/2 28/1/2
f 27/4/2 24/4/2 28/4/2
f 25/3/2 26/3/2 29/3/2
f 28/1/2 25/1/2 29/1/2
f 29/3/2 26/3/2 30/3/2
f 27/1/2 28/1/2 31/1/2
f 31/1/2 28/1/2 32/1/2
f 29/5/2 30/5/2 33/5/2
f 33/5/2 30/5/2 34/5/2
f 31/4/2 32/4/2 35/4/2
f 35/4/2 32/4/2 36/4/2
f 37/5/2 38/5/2 39/5/2
f 39/5/2 38/5/2 40/5/2
f 39/2/2 40/2/2 41/2/2
f 41/2/2 40/2/2 42/2/2
f 47/4/3 44/4/3 43/4/3
f 48/1/3 45/1/3 44/1/3
f 48/4/3 44/4/3 47/4/3
f 49/4/3 46/4/3 45/4/3
f 49/1/3 45/1/3 48/1/3
f 50/4/3 46/4/3 49/4/3
f 54/4/3 52/4/3 51/4/3
f 55/5/3 53/5/3 52/5/3
f 55/4/3 52/4/3 54/4/3
f 56/5/3 53/5/3 55/5/3
f 60/5/3 58/5/3 57/5/3
f 61/2/3 59/2/3 58/2/3
f 61/5/3 58/5/3 60/5/3
f 62/2/3 59/2/3 61/2/3
f 63/4/4 64/4/4 65/4/4
f 65/4/4 64/4/4 66/4/4
f 67/5/4 68/5/4 70/5/4
f 70/5/4 68/5/4 71/5/4
f 69/5/4 70/5/4 72/5/4
f 70/2/4 71/2/4 73/2/4
f 72/5/4 70/5/4 73/5/4
f 73/2/4 71/2/4 74/2/4
f 75/4/4 76/4/4 78/4/4
f 78/4/4 76/4/4 79/4/4
f 77/3/4 78/3/4 80/3/4
f 78/5/4 79/5/4 81/5/4
f 80/3/4 78/3/4 81/3/4
f 81/5/4 79/5/4 82/5/4
f 86/4/5 84/4/5 83/4/5
f 87/4/5 84/4/5 86/4/5
f 88/4/5 86/4/5 85/4/5
f 89/1/5 87/1/5 86/1/5
f 89/4/5 86/4/5 88/4/5
f 90/1/5 87/1/5 89/1/5
f 91/3/5 90/3/5 89/3/5
f 92/3/5 90/3/5 91/3/5
f 97/5/5 94/5/5 93/5/5
f 98/5/5 94/5/5 97/5/5
f 99/4/5 96/4/5 95/4/5
f 100/4/5 96/4/5 99/4/5
f 101/5/6 102/5/6 103/5/6
f 103/5/6 102/5/6 104/5/6
f 103/4/6 104/4/6 106/4/6
f 104/5/6 105/5/6 107/5/6
f 106/4/6 104/4/6 107/4/6
f 107/5/6 105/5/6 108/5/6
f 109/4/6 110/4/6 111/4/6
f 111/4/6 110/4/6 112/4/6
f 111/5/6 112/5/6 114/5/6
f 112/2/6 113/2/6 115/2/6
f 114/5/6 112/5/6 115/5/6
f 115/2/6 113/2/6 116/2/6
