# MagicaVoxel @ Ephtracy

# group
o 

# material
mtllib Pills.mtl
usemtl palette

# normals
vn -1 0 0
vn 1 0 0
vn 0 0 1
vn 0 0 -1
vn 0 -1 0
vn 0 1 0

# texcoords
vt 0.0878906 0.5
vt 0.0917969 0.5
vt 0.958984 0.5
vt 0.962891 0.5
vt 0.994141 0.5

# verts
v -0.7 2.5 0.4
v -0.7 2.5 -0.4
v -0.7 2.7 0.4
v -0.7 2.7 -0.4
v -0.7 2.8 0.4
v -0.7 2.8 -0.4
v -0.6 0 0.4
v -0.6 0 -0.4
v -0.6 2.3 0.4
v -0.6 2.3 -0.4
v -0.6 2.5 0.5
v -0.6 2.5 0.4
v -0.6 2.5 -0.4
v -0.6 2.5 -0.5
v -0.6 2.7 0.5
v -0.6 2.7 0.4
v -0.6 2.7 -0.4
v -0.6 2.7 -0.5
v -0.6 2.8 0.5
v -0.6 2.8 0.4
v -0.6 2.8 -0.4
v -0.6 2.8 -0.5
v -0.5 0 0.5
v -0.5 0 0.4
v -0.5 0 -0.4
v -0.5 0 -0.5
v -0.5 2.3 0.5
v -0.5 2.3 0.4
v -0.5 2.3 -0.4
v -0.5 2.3 -0.5
v -0.5 2.5 0.6
v -0.5 2.5 0.5
v -0.5 2.5 0.4
v -0.5 2.5 -0.4
v -0.5 2.5 -0.5
v -0.5 2.5 -0.6
v -0.5 2.7 0.6
v -0.5 2.7 0.5
v -0.5 2.7 -0.5
v -0.5 2.7 -0.6
v -0.5 2.8 0.6
v -0.5 2.8 0.5
v -0.5 2.8 -0.5
v -0.5 2.8 -0.6
v -0.4 0 0.6
v -0.4 0 0.5
v -0.4 0 -0.5
v -0.4 0 -0.6
v -0.4 2.3 0.6
v -0.4 2.3 0.5
v -0.4 2.3 -0.5
v -0.4 2.3 -0.6
v -0.4 2.5 0.7
v -0.4 2.5 0.6
v -0.4 2.5 0.5
v -0.4 2.5 -0.5
v -0.4 2.5 -0.6
v -0.4 2.5 -0.7
v -0.4 2.7 0.7
v -0.4 2.7 0.6
v -0.4 2.7 -0.6
v -0.4 2.7 -0.7
v -0.4 2.8 0.7
v -0.4 2.8 0.6
v -0.4 2.8 -0.6
v -0.4 2.8 -0.7
v 0.4 0 0.6
v 0.4 0 0.5
v 0.4 0 -0.5
v 0.4 0 -0.6
v 0.4 1.4 0.5
v 0.4 1.4 -0.5
v 0.4 1.9 0.5
v 0.4 1.9 -0.5
v 0.4 2.3 0.6
v 0.4 2.3 0.5
v 0.4 2.3 -0.5
v 0.4 2.3 -0.6
v 0.4 2.5 0.7
v 0.4 2.5 0.6
v 0.4 2.5 0.5
v 0.4 2.5 -0.5
v 0.4 2.5 -0.6
v 0.4 2.5 -0.7
v 0.4 2.7 0.7
v 0.4 2.7 0.6
v 0.4 2.7 -0.6
v 0.4 2.7 -0.7
v 0.4 2.8 0.7
v 0.4 2.8 0.6
v 0.4 2.8 -0.6
v 0.4 2.8 -0.7
v 0.5 0 0.5
v 0.5 0 0.4
v 0.5 0 -0.4
v 0.5 0 -0.5
v 0.5 1.4 0.5
v 0.5 1.4 0.4
v 0.5 1.4 -0.4
v 0.5 1.4 -0.5
v 0.5 1.9 0.5
v 0.5 1.9 0.4
v 0.5 1.9 -0.4
v 0.5 1.9 -0.5
v 0.5 2.3 0.5
v 0.5 2.3 0.4
v 0.5 2.3 -0.4
v 0.5 2.3 -0.5
v 0.5 2.5 0.6
v 0.5 2.5 0.5
v 0.5 2.5 0.4
v 0.5 2.5 -0.4
v 0.5 2.5 -0.5
v 0.5 2.5 -0.6
v 0.5 2.7 0.6
v 0.5 2.7 0.5
v 0.5 2.7 -0.5
v 0.5 2.7 -0.6
v 0.5 2.8 0.6
v 0.5 2.8 0.5
v 0.5 2.8 -0.5
v 0.5 2.8 -0.6
v 0.6 0 0.4
v 0.6 0 -0.4
v 0.6 1.4 0.4
v 0.6 1.4 -0.4
v 0.6 1.5 0.2
v 0.6 1.5 -0.1
v 0.6 1.5 -0.2
v 0.6 1.5 -0.3
v 0.6 1.6 0.2
v 0.6 1.6 -0.1
v 0.6 1.6 -0.2
v 0.6 1.6 -0.3
v 0.6 1.7 0.3
v 0.6 1.7 -0.3
v 0.6 1.8 0.3
v 0.6 1.8 -0.3
v 0.6 1.9 0.4
v 0.6 1.9 -0.4
v 0.6 2.3 0.4
v 0.6 2.3 -0.4
v 0.6 2.5 0.5
v 0.6 2.5 0.4
v 0.6 2.5 -0.4
v 0.6 2.5 -0.5
v 0.6 2.7 0.5
v 0.6 2.7 0.4
v 0.6 2.7 -0.4
v 0.6 2.7 -0.5
v 0.6 2.8 0.5
v 0.6 2.8 0.4
v 0.6 2.8 -0.4
v 0.6 2.8 -0.5
v 0.7 2.5 0.4
v 0.7 2.5 -0.4
v 0.7 2.7 0.4
v 0.7 2.7 -0.4
v 0.7 2.8 0.4
v 0.7 2.8 -0.4
v -0.4 2.5 0.7
v -0.4 2.7 0.7
v -0.4 2.8 0.7
v 0.4 2.5 0.7
v 0.4 2.7 0.7
v 0.4 2.8 0.7
v -0.5 2.5 0.6
v -0.5 2.7 0.6
v -0.5 2.8 0.6
v -0.4 0 0.6
v -0.4 2.3 0.6
v -0.4 2.5 0.6
v -0.4 2.7 0.6
v -0.4 2.8 0.6
v 0.4 0 0.6
v 0.4 2.3 0.6
v 0.4 2.5 0.6
v 0.4 2.7 0.6
v 0.4 2.8 0.6
v 0.5 2.5 0.6
v 0.5 2.7 0.6
v 0.5 2.8 0.6
v -0.6 2.5 0.5
v -0.6 2.7 0.5
v -0.6 2.8 0.5
v -0.5 0 0.5
v -0.5 2.3 0.5
v -0.5 2.5 0.5
v -0.5 2.7 0.5
v -0.5 2.8 0.5
v -0.4 0 0.5
v -0.4 2.3 0.5
v -0.4 2.5 0.5
v 0.4 0 0.5
v 0.4 1.4 0.5
v 0.4 1.9 0.5
v 0.4 2.3 0.5
v 0.4 2.5 0.5
v 0.5 0 0.5
v 0.5 1.4 0.5
v 0.5 1.9 0.5
v 0.5 2.3 0.5
v 0.5 2.5 0.5
v 0.5 2.7 0.5
v 0.5 2.8 0.5
v 0.6 2.5 0.5
v 0.6 2.7 0.5
v 0.6 2.8 0.5
v -0.7 2.5 0.4
v -0.7 2.7 0.4
v -0.7 2.8 0.4
v -0.6 0 0.4
v -0.6 2.3 0.4
v -0.6 2.5 0.4
v -0.6 2.7 0.4
v -0.6 2.8 0.4
v -0.5 0 0.4
v -0.5 2.3 0.4
v -0.5 2.5 0.4
v 0.5 0 0.4
v 0.5 1.4 0.4
v 0.5 1.9 0.4
v 0.5 2.3 0.4
v 0.5 2.5 0.4
v 0.6 0 0.4
v 0.6 1.4 0.4
v 0.6 1.9 0.4
v 0.6 2.3 0.4
v 0.6 2.5 0.4
v 0.6 2.7 0.4
v 0.6 2.8 0.4
v 0.7 2.5 0.4
v 0.7 2.7 0.4
v 0.7 2.8 0.4
v -0.7 2.5 -0.4
v -0.7 2.7 -0.4
v -0.7 2.8 -0.4
v -0.6 0 -0.4
v -0.6 2.3 -0.4
v -0.6 2.5 -0.4
v -0.6 2.7 -0.4
v -0.6 2.8 -0.4
v -0.5 0 -0.4
v -0.5 2.3 -0.4
v -0.5 2.5 -0.4
v 0.5 0 -0.4
v 0.5 1.4 -0.4
v 0.5 1.9 -0.4
v 0.5 2.3 -0.4
v 0.5 2.5 -0.4
v 0.6 0 -0.4
v 0.6 1.4 -0.4
v 0.6 1.9 -0.4
v 0.6 2.3 -0.4
v 0.6 2.5 -0.4
v 0.6 2.7 -0.4
v 0.6 2.8 -0.4
v 0.7 2.5 -0.4
v 0.7 2.7 -0.4
v 0.7 2.8 -0.4
v -0.6 2.5 -0.5
v -0.6 2.7 -0.5
v -0.6 2.8 -0.5
v -0.5 0 -0.5
v -0.5 2.3 -0.5
v -0.5 2.5 -0.5
v -0.5 2.7 -0.5
v -0.5 2.8 -0.5
v -0.4 0 -0.5
v -0.4 2.3 -0.5
v -0.4 2.5 -0.5
v 0.4 0 -0.5
v 0.4 1.4 -0.5
v 0.4 1.9 -0.5
v 0.4 2.3 -0.5
v 0.4 2.5 -0.5
v 0.5 0 -0.5
v 0.5 1.4 -0.5
v 0.5 1.9 -0.5
v 0.5 2.3 -0.5
v 0.5 2.5 -0.5
v 0.5 2.7 -0.5
v 0.5 2.8 -0.5
v 0.6 2.5 -0.5
v 0.6 2.7 -0.5
v 0.6 2.8 -0.5
v -0.5 2.5 -0.6
v -0.5 2.7 -0.6
v -0.5 2.8 -0.6
v -0.4 0 -0.6
v -0.4 2.3 -0.6
v -0.4 2.5 -0.6
v -0.4 2.7 -0.6
v -0.4 2.8 -0.6
v 0.4 0 -0.6
v 0.4 2.3 -0.6
v 0.4 2.5 -0.6
v 0.4 2.7 -0.6
v 0.4 2.8 -0.6
v 0.5 2.5 -0.6
v 0.5 2.7 -0.6
v 0.5 2.8 -0.6
v -0.4 2.5 -0.7
v -0.4 2.7 -0.7
v -0.4 2.8 -0.7
v 0.4 2.5 -0.7
v 0.4 2.7 -0.7
v 0.4 2.8 -0.7
v -0.4 0 0.6
v 0.4 0 0.6
v -0.5 0 0.5
v -0.4 0 0.5
v 0.4 0 0.5
v 0.5 0 0.5
v -0.6 0 0.4
v -0.5 0 0.4
v 0.5 0 0.4
v 0.6 0 0.4
v -0.6 0 -0.4
v -0.5 0 -0.4
v 0.5 0 -0.4
v 0.6 0 -0.4
v -0.5 0 -0.5
v -0.4 0 -0.5
v 0.4 0 -0.5
v 0.5 0 -0.5
v -0.4 0 -0.6
v 0.4 0 -0.6
v -0.4 2.5 0.7
v 0.4 2.5 0.7
v -0.5 2.5 0.6
v -0.4 2.5 0.6
v 0.4 2.5 0.6
v 0.5 2.5 0.6
v -0.6 2.5 0.5
v -0.5 2.5 0.5
v -0.4 2.5 0.5
v 0.4 2.5 0.5
v 0.5 2.5 0.5
v 0.6 2.5 0.5
v -0.7 2.5 0.4
v -0.6 2.5 0.4
v -0.5 2.5 0.4
v 0.5 2.5 0.4
v 0.6 2.5 0.4
v 0.7 2.5 0.4
v -0.7 2.5 -0.4
v -0.6 2.5 -0.4
v -0.5 2.5 -0.4
v 0.5 2.5 -0.4
v 0.6 2.5 -0.4
v 0.7 2.5 -0.4
v -0.6 2.5 -0.5
v -0.5 2.5 -0.5
v -0.4 2.5 -0.5
v 0.4 2.5 -0.5
v 0.5 2.5 -0.5
v 0.6 2.5 -0.5
v -0.5 2.5 -0.6
v -0.4 2.5 -0.6
v 0.4 2.5 -0.6
v 0.5 2.5 -0.6
v -0.4 2.5 -0.7
v 0.4 2.5 -0.7
v -0.4 2.8 0.7
v 0.4 2.8 0.7
v -0.5 2.8 0.6
v -0.4 2.8 0.6
v 0.4 2.8 0.6
v 0.5 2.8 0.6
v -0.6 2.8 0.5
v -0.5 2.8 0.5
v -0.4 2.8 0.5
v 0.4 2.8 0.5
v 0.5 2.8 0.5
v 0.6 2.8 0.5
v -0.7 2.8 0.4
v -0.6 2.8 0.4
v -0.5 2.8 0.4
v 0.5 2.8 0.4
v 0.6 2.8 0.4
v 0.7 2.8 0.4
v -0.7 2.8 -0.4
v -0.6 2.8 -0.4
v -0.5 2.8 -0.4
v 0.5 2.8 -0.4
v 0.6 2.8 -0.4
v 0.7 2.8 -0.4
v -0.6 2.8 -0.5
v -0.5 2.8 -0.5
v -0.4 2.8 -0.5
v 0.4 2.8 -0.5
v 0.5 2.8 -0.5
v 0.6 2.8 -0.5
v -0.5 2.8 -0.6
v -0.4 2.8 -0.6
v 0.4 2.8 -0.6
v 0.5 2.8 -0.6
v -0.4 2.8 -0.7
v 0.4 2.8 -0.7

# faces
f 3/3/1 2/3/1 1/3/1
f 4/3/1 2/3/1 3/3/1
f 5/4/1 4/4/1 3/4/1
f 6/4/1 4/4/1 5/4/1
f 9/1/1 8/1/1 7/1/1
f 10/1/1 8/1/1 9/1/1
f 12/2/1 10/2/1 9/2/1
f 13/2/1 10/2/1 12/2/1
f 15/3/1 12/3/1 11/3/1
f 16/3/1 12/3/1 15/3/1
f 17/3/1 14/3/1 13/3/1
f 18/3/1 14/3/1 17/3/1
f 19/4/1 16/4/1 15/4/1
f 20/4/1 16/4/1 19/4/1
f 21/4/1 18/4/1 17/4/1
f 22/4/1 18/4/1 21/4/1
f 27/1/1 24/1/1 23/1/1
f 28/1/1 24/1/1 27/1/1
f 29/1/1 26/1/1 25/1/1
f 30/1/1 26/1/1 29/1/1
f 32/2/1 28/2/1 27/2/1
f 33/2/1 28/2/1 32/2/1
f 34/2/1 30/2/1 29/2/1
f 35/2/1 30/2/1 34/2/1
f 37/3/1 32/3/1 31/3/1
f 38/3/1 32/3/1 37/3/1
f 39/3/1 36/3/1 35/3/1
f 40/3/1 36/3/1 39/3/1
f 41/4/1 38/4/1 37/4/1
f 42/4/1 38/4/1 41/4/1
f 43/4/1 40/4/1 39/4/1
f 44/4/1 40/4/1 43/4/1
f 49/1/1 46/1/1 45/1/1
f 50/1/1 46/1/1 49/1/1
f 51/1/1 48/1/1 47/1/1
f 52/1/1 48/1/1 51/1/1
f 54/2/1 50/2/1 49/2/1
f 55/2/1 50/2/1 54/2/1
f 56/2/1 52/2/1 51/2/1
f 57/2/1 52/2/1 56/2/1
f 59/3/1 54/3/1 53/3/1
f 60/3/1 54/3/1 59/3/1
f 61/3/1 58/3/1 57/3/1
f 62/3/1 58/3/1 61/3/1
f 63/4/1 60/4/1 59/4/1
f 64/4/1 60/4/1 63/4/1
f 65/4/1 62/4/1 61/4/1
f 66/4/1 62/4/1 65/4/1
f 67/1/2 68/1/2 71/1/2
f 69/1/2 70/1/2 72/1/2
f 67/1/2 71/1/2 73/1/2
f 72/1/2 70/1/2 74/1/2
f 67/1/2 73/1/2 75/1/2
f 75/1/2 73/1/2 76/1/2
f 74/1/2 70/1/2 77/1/2
f 77/1/2 70/1/2 78/1/2
f 75/2/2 76/2/2 80/2/2
f 80/2/2 76/2/2 81/2/2
f 77/2/2 78/2/2 82/2/2
f 82/2/2 78/2/2 83/2/2
f 79/3/2 80/3/2 85/3/2
f 85/3/2 80/3/2 86/3/2
f 83/3/2 84/3/2 87/3/2
f 87/3/2 84/3/2 88/3/2
f 85/4/2 86/4/2 89/4/2
f 89/4/2 86/4/2 90/4/2
f 87/4/2 88/4/2 91/4/2
f 91/4/2 88/4/2 92/4/2
f 93/1/2 94/1/2 97/1/2
f 97/1/2 94/1/2 98/1/2
f 95/1/2 96/1/2 99/1/2
f 99/1/2 96/1/2 100/1/2
f 97/3/2 98/3/2 101/3/2
f 101/3/2 98/3/2 102/3/2
f 99/3/2 100/3/2 103/3/2
f 103/3/2 100/3/2 104/3/2
f 101/1/2 102/1/2 105/1/2
f 105/1/2 102/1/2 106/1/2
f 103/1/2 104/1/2 107/1/2
f 107/1/2 104/1/2 108/1/2
f 105/2/2 106/2/2 110/2/2
f 110/2/2 106/2/2 111/2/2
f 107/2/2 108/2/2 112/2/2
f 112/2/2 108/2/2 113/2/2
f 109/3/2 110/3/2 115/3/2
f 115/3/2 110/3/2 116/3/2
f 113/3/2 114/3/2 117/3/2
f 117/3/2 114/3/2 118/3/2
f 115/4/2 116/4/2 119/4/2
f 119/4/2 116/4/2 120/4/2
f 117/4/2 118/4/2 121/4/2
f 121/4/2 118/4/2 122/4/2
f 123/1/2 124/1/2 125/1/2
f 125/1/2 124/1/2 126/1/2
f 125/3/2 126/3/2 127/3/2
f 127/3/2 126/3/2 128/3/2
f 128/3/2 126/3/2 129/3/2
f 129/3/2 126/3/2 130/3/2
f 125/3/2 127/3/2 131/3/2
f 127/5/2 128/5/2 131/5/2
f 128/3/2 129/3/2 132/3/2
f 131/5/2 128/5/2 132/5/2
f 129/5/2 130/5/2 133/5/2
f 132/3/2 129/3/2 133/3/2
f 130/3/2 126/3/2 134/3/2
f 133/5/2 130/5/2 134/5/2
f 132/3/2 133/3/2 135/3/2
f 131/3/2 132/3/2 135/3/2
f 133/3/2 134/3/2 135/3/2
f 125/3/2 131/3/2 135/3/2
f 134/3/2 126/3/2 136/3/2
f 135/3/2 134/3/2 136/3/2
f 125/3/2 135/3/2 137/3/2
f 135/5/2 136/5/2 137/5/2
f 136/3/2 126/3/2 138/3/2
f 137/5/2 136/5/2 138/5/2
f 125/3/2 137/3/2 139/3/2
f 137/3/2 138/3/2 139/3/2
f 138/3/2 126/3/2 140/3/2
f 139/3/2 138/3/2 140/3/2
f 139/1/2 140/1/2 141/1/2
f 141/1/2 140/1/2 142/1/2
f 141/2/2 142/2/2 144/2/2
f 144/2/2 142/2/2 145/2/2
f 143/3/2 144/3/2 147/3/2
f 147/3/2 144/3/2 148/3/2
f 145/3/2 146/3/2 149/3/2
f 149/3/2 146/3/2 150/3/2
f 147/4/2 148/4/2 151/4/2
f 151/4/2 148/4/2 152/4/2
f 149/4/2 150/4/2 153/4/2
f 153/4/2 150/4/2 154/4/2
f 155/3/2 156/3/2 157/3/2
f 157/3/2 156/3/2 158/3/2
f 157/4/2 158/4/2 159/4/2
f 159/4/2 158/4/2 160/4/2
f 164/3/3 162/3/3 161/3/3
f 165/4/3 163/4/3 162/4/3
f 165/3/3 162/3/3 164/3/3
f 166/4/3 163/4/3 165/4/3
f 172/3/3 168/3/3 167/3/3
f 173/4/3 169/4/3 168/4/3
f 173/3/3 168/3/3 172/3/3
f 174/4/3 169/4/3 173/4/3
f 175/1/3 171/1/3 170/1/3
f 176/2/3 172/2/3 171/2/3
f 176/1/3 171/1/3 175/1/3
f 177/2/3 172/2/3 176/2/3
f 180/3/3 178/3/3 177/3/3
f 181/4/3 179/4/3 178/4/3
f 181/3/3 178/3/3 180/3/3
f 182/4/3 179/4/3 181/4/3
f 188/3/3 184/3/3 183/3/3
f 189/4/3 185/4/3 184/4/3
f 189/3/3 184/3/3 188/3/3
f 190/4/3 185/4/3 189/4/3
f 191/1/3 187/1/3 186/1/3
f 192/2/3 188/2/3 187/2/3
f 192/1/3 187/1/3 191/1/3
f 193/2/3 188/2/3 192/2/3
f 199/1/3 195/1/3 194/1/3
f 200/3/3 196/3/3 195/3/3
f 200/1/3 195/1/3 199/1/3
f 201/1/3 197/1/3 196/1/3
f 201/3/3 196/3/3 200/3/3
f 202/2/3 198/2/3 197/2/3
f 202/1/3 197/1/3 201/1/3
f 203/2/3 198/2/3 202/2/3
f 206/3/3 204/3/3 203/3/3
f 207/4/3 205/4/3 204/4/3
f 207/3/3 204/3/3 206/3/3
f 208/4/3 205/4/3 207/4/3
f 214/3/3 210/3/3 209/3/3
f 215/4/3 211/4/3 210/4/3
f 215/3/3 210/3/3 214/3/3
f 216/4/3 211/4/3 215/4/3
f 217/1/3 213/1/3 212/1/3
f 218/2/3 214/2/3 213/2/3
f 218/1/3 213/1/3 217/1/3
f 219/2/3 214/2/3 218/2/3
f 225/1/3 221/1/3 220/1/3
f 226/3/3 222/3/3 221/3/3
f 226/1/3 221/1/3 225/1/3
f 227/1/3 223/1/3 222/1/3
f 227/3/3 222/3/3 226/3/3
f 228/2/3 224/2/3 223/2/3
f 228/1/3 223/1/3 227/1/3
f 229/2/3 224/2/3 228/2/3
f 232/3/3 230/3/3 229/3/3
f 233/4/3 231/4/3 230/4/3
f 233/3/3 230/3/3 232/3/3
f 234/4/3 231/4/3 233/4/3
f 235/3/4 236/3/4 240/3/4
f 236/4/4 237/4/4 241/4/4
f 240/3/4 236/3/4 241/3/4
f 241/4/4 237/4/4 242/4/4
f 238/1/4 239/1/4 243/1/4
f 239/2/4 240/2/4 244/2/4
f 243/1/4 239/1/4 244/1/4
f 244/2/4 240/2/4 245/2/4
f 246/1/4 247/1/4 251/1/4
f 247/3/4 248/3/4 252/3/4
f 251/1/4 247/1/4 252/1/4
f 248/1/4 249/1/4 253/1/4
f 252/3/4 248/3/4 253/3/4
f 249/2/4 250/2/4 254/2/4
f 253/1/4 249/1/4 254/1/4
f 254/2/4 250/2/4 255/2/4
f 255/3/4 256/3/4 258/3/4
f 256/4/4 257/4/4 259/4/4
f 258/3/4 256/3/4 259/3/4
f 259/4/4 257/4/4 260/4/4
f 261/3/4 262/3/4 266/3/4
f 262/4/4 263/4/4 267/4/4
f 266/3/4 262/3/4 267/3/4
f 267/4/4 263/4/4 268/4/4
f 264/1/4 265/1/4 269/1/4
f 265/2/4 266/2/4 270/2/4
f 269/1/4 265/1/4 270/1/4
f 270/2/4 266/2/4 271/2/4
f 272/1/4 273/1/4 277/1/4
f 273/3/4 274/3/4 278/3/4
f 277/1/4 273/1/4 278/1/4
f 274/1/4 275/1/4 279/1/4
f 278/3/4 274/3/4 279/3/4
f 275/2/4 276/2/4 280/2/4
f 279/1/4 275/1/4 280/1/4
f 280/2/4 276/2/4 281/2/4
f 281/3/4 282/3/4 284/3/4
f 282/4/4 283/4/4 285/4/4
f 284/3/4 282/3/4 285/3/4
f 285/4/4 283/4/4 286/4/4
f 287/3/4 288/3/4 292/3/4
f 288/4/4 289/4/4 293/4/4
f 292/3/4 288/3/4 293/3/4
f 293/4/4 289/4/4 294/4/4
f 290/1/4 291/1/4 295/1/4
f 291/2/4 292/2/4 296/2/4
f 295/1/4 291/1/4 296/1/4
f 296/2/4 292/2/4 297/2/4
f 297/3/4 298/3/4 300/3/4
f 298/4/4 299/4/4 301/4/4
f 300/3/4 298/3/4 301/3/4
f 301/4/4 299/4/4 302/4/4
f 303/3/4 304/3/4 306/3/4
f 304/4/4 305/4/4 307/4/4
f 306/3/4 304/3/4 307/3/4
f 307/4/4 305/4/4 308/4/4
f 312/1/5 310/1/5 309/1/5
f 313/1/5 310/1/5 312/1/5
f 316/1/5 312/1/5 311/1/5
f 316/1/5 314/1/5 313/1/5
f 316/1/5 313/1/5 312/1/5
f 317/1/5 314/1/5 316/1/5
f 319/1/5 316/1/5 315/1/5
f 319/1/5 318/1/5 317/1/5
f 319/1/5 317/1/5 316/1/5
f 320/1/5 318/1/5 319/1/5
f 321/1/5 318/1/5 320/1/5
f 322/1/5 318/1/5 321/1/5
f 323/1/5 321/1/5 320/1/5
f 324/1/5 321/1/5 323/1/5
f 325/1/5 321/1/5 324/1/5
f 326/1/5 321/1/5 325/1/5
f 327/1/5 325/1/5 324/1/5
f 328/1/5 325/1/5 327/1/5
f 332/3/5 330/3/5 329/3/5
f 333/3/5 330/3/5 332/3/5
f 336/3/5 332/3/5 331/3/5
f 337/3/5 332/3/5 336/3/5
f 338/3/5 334/3/5 333/3/5
f 339/3/5 334/3/5 338/3/5
f 342/3/5 336/3/5 335/3/5
f 343/3/5 336/3/5 342/3/5
f 344/3/5 340/3/5 339/3/5
f 345/3/5 340/3/5 344/3/5
f 347/3/5 342/3/5 341/3/5
f 348/3/5 342/3/5 347/3/5
f 351/3/5 346/3/5 345/3/5
f 352/3/5 346/3/5 351/3/5
f 353/3/5 349/3/5 348/3/5
f 354/3/5 349/3/5 353/3/5
f 357/3/5 351/3/5 350/3/5
f 358/3/5 351/3/5 357/3/5
f 359/3/5 355/3/5 354/3/5
f 360/3/5 355/3/5 359/3/5
f 361/3/5 357/3/5 356/3/5
f 362/3/5 357/3/5 361/3/5
f 363/3/5 361/3/5 360/3/5
f 364/3/5 361/3/5 363/3/5
f 365/4/6 366/4/6 368/4/6
f 368/4/6 366/4/6 369/4/6
f 367/4/6 368/4/6 372/4/6
f 368/3/6 369/3/6 373/3/6
f 372/4/6 368/4/6 373/4/6
f 369/4/6 370/4/6 374/4/6
f 373/3/6 369/3/6 374/3/6
f 374/4/6 370/4/6 375/4/6
f 371/4/6 372/4/6 378/4/6
f 372/3/6 373/3/6 379/3/6
f 373/3/6 374/3/6 379/3/6
f 378/4/6 372/4/6 379/4/6
f 374/3/6 375/3/6 379/3/6
f 375/4/6 376/4/6 380/4/6
f 379/3/6 375/3/6 380/3/6
f 380/4/6 376/4/6 381/4/6
f 377/4/6 378/4/6 383/4/6
f 378/3/6 379/3/6 384/3/6
f 383/4/6 378/4/6 384/4/6
f 379/3/6 380/3/6 384/3/6
f 380/3/6 381/3/6 384/3/6
f 384/3/6 381/3/6 385/3/6
f 385/3/6 381/3/6 386/3/6
f 381/4/6 382/4/6 387/4/6
f 386/3/6 381/3/6 387/3/6
f 387/4/6 382/4/6 388/4/6
f 384/4/6 385/4/6 389/4/6
f 385/3/6 386/3/6 390/3/6
f 389/4/6 385/4/6 390/4/6
f 390/3/6 386/3/6 391/3/6
f 391/3/6 386/3/6 392/3/6
f 386/4/6 387/4/6 393/4/6
f 392/3/6 386/3/6 393/3/6
f 393/4/6 387/4/6 394/4/6
f 390/4/6 391/4/6 395/4/6
f 391/3/6 392/3/6 396/3/6
f 395/4/6 391/4/6 396/4/6
f 392/4/6 393/4/6 397/4/6
f 396/3/6 392/3/6 397/3/6
f 397/4/6 393/4/6 398/4/6
f 396/4/6 397/4/6 399/4/6
f 399/4/6 397/4/6 400/4/6
