# MagicaVoxel @ Ephtracy

# group
o 

# material
mtllib Enemy-9.mtl
usemtl palette

# normals
vn -1 0 0
vn 1 0 0
vn 0 0 -1
vn 0 0 1
vn 0 1 0
vn 0 -1 0

# texcoords
vt 0.845703 0.5
vt 0.990234 0.5
vt 0.994141 0.5

# verts
v -0.1 0.3 -0.1
v -0.1 0.3 0
v -0.1 0.2 -0.2
v -0.1 0.2 -0.1
v -0.1 0.2 0
v -0.1 0.2 0.1
v -0.1 0.1 -0.2
v -0.1 0.1 -0.1
v -0.1 0.1 0
v -0.1 0.1 0.1
v -0.1 -0.1 -0.2
v -0.1 -0.1 -0.1
v -0.1 -0.1 0
v -0.1 -0.1 0.1
v -0.1 -0.2 -0.2
v -0.1 -0.2 -0.1
v -0.1 -0.2 0
v -0.1 -0.2 0.1
v -0.1 -0.3 -0.1
v -0.1 -0.3 0
v 0 0.4 -0.1
v 0 0.4 0
v 0 0.3 -0.2
v 0 0.3 -0.1
v 0 0.3 0
v 0 0.3 0.1
v 0 0.2 -0.2
v 0 0.2 -0.1
v 0 0.2 0
v 0 0.2 0.1
v 0 0.1 -0.2
v 0 0.1 -0.1
v 0 0.1 0
v 0 0.1 0.1
v 0 -0.1 -0.2
v 0 -0.1 -0.1
v 0 -0.1 0
v 0 -0.1 0.1
v 0 -0.2 -0.2
v 0 -0.2 -0.1
v 0 -0.2 0
v 0 -0.2 0.1
v 0 -0.3 -0.2
v 0 -0.3 -0.1
v 0 -0.3 0
v 0 -0.3 0.1
v 0 -0.4 -0.1
v 0 -0.4 0
v 0.1 0.4 -0.1
v 0.1 0.4 0
v 0.1 0.3 -0.2
v 0.1 0.3 -0.1
v 0.1 0.3 0
v 0.1 0.3 0.1
v 0.1 0.2 -0.2
v 0.1 0.2 -0.1
v 0.1 0.2 0
v 0.1 0.2 0.1
v 0.1 0.1 -0.2
v 0.1 0.1 -0.1
v 0.1 0.1 0
v 0.1 0.1 0.1
v 0.1 -0.1 -0.2
v 0.1 -0.1 -0.1
v 0.1 -0.1 0
v 0.1 -0.1 0.1
v 0.1 -0.2 -0.2
v 0.1 -0.2 -0.1
v 0.1 -0.2 0
v 0.1 -0.2 0.1
v 0.1 -0.3 -0.2
v 0.1 -0.3 -0.1
v 0.1 -0.3 0
v 0.1 -0.3 0.1
v 0.1 -0.4 -0.1
v 0.1 -0.4 0
v 0.2 0.3 -0.1
v 0.2 0.3 0
v 0.2 0.2 -0.2
v 0.2 0.2 -0.1
v 0.2 0.2 0
v 0.2 0.2 0.1
v 0.2 0.1 -0.2
v 0.2 0.1 -0.1
v 0.2 0.1 0
v 0.2 0.1 0.1
v 0.2 -0.1 -0.2
v 0.2 -0.1 -0.1
v 0.2 -0.1 0
v 0.2 -0.1 0.1
v 0.2 -0.2 -0.2
v 0.2 -0.2 -0.1
v 0.2 -0.2 0
v 0.2 -0.2 0.1
v 0.2 -0.3 -0.1
v 0.2 -0.3 0
v -0.1 0.2 -0.2
v -0.1 0.1 -0.2
v -0.1 -0.1 -0.2
v -0.1 -0.2 -0.2
v 0 0.3 -0.2
v 0 0.2 -0.2
v 0 0.1 -0.2
v 0 -0.1 -0.2
v 0 -0.2 -0.2
v 0 -0.3 -0.2
v 0.1 0.3 -0.2
v 0.1 0.2 -0.2
v 0.1 0.1 -0.2
v 0.1 -0.1 -0.2
v 0.1 -0.2 -0.2
v 0.1 -0.3 -0.2
v 0.2 0.2 -0.2
v 0.2 0.1 -0.2
v 0.2 -0.1 -0.2
v 0.2 -0.2 -0.2
v -0.1 0.3 -0.1
v -0.1 0.2 -0.1
v -0.1 0.1 -0.1
v -0.1 -0.1 -0.1
v -0.1 -0.2 -0.1
v -0.1 -0.3 -0.1
v 0 0.4 -0.1
v 0 0.3 -0.1
v 0 0.2 -0.1
v 0 0.1 -0.1
v 0 -0.1 -0.1
v 0 -0.2 -0.1
v 0 -0.3 -0.1
v 0 -0.4 -0.1
v 0.1 0.4 -0.1
v 0.1 0.3 -0.1
v 0.1 0.2 -0.1
v 0.1 0.1 -0.1
v 0.1 -0.1 -0.1
v 0.1 -0.2 -0.1
v 0.1 -0.3 -0.1
v 0.1 -0.4 -0.1
v 0.2 0.3 -0.1
v 0.2 0.2 -0.1
v 0.2 0.1 -0.1
v 0.2 -0.1 -0.1
v 0.2 -0.2 -0.1
v 0.2 -0.3 -0.1
v -0.1 0.3 0
v -0.1 0.2 0
v -0.1 0.1 0
v -0.1 -0.1 0
v -0.1 -0.2 0
v -0.1 -0.3 0
v 0 0.4 0
v 0 0.3 0
v 0 0.2 0
v 0 0.1 0
v 0 -0.1 0
v 0 -0.2 0
v 0 -0.3 0
v 0 -0.4 0
v 0.1 0.4 0
v 0.1 0.3 0
v 0.1 0.2 0
v 0.1 0.1 0
v 0.1 -0.1 0
v 0.1 -0.2 0
v 0.1 -0.3 0
v 0.1 -0.4 0
v 0.2 0.3 0
v 0.2 0.2 0
v 0.2 0.1 0
v 0.2 -0.1 0
v 0.2 -0.2 0
v 0.2 -0.3 0
v -0.1 0.2 0.1
v -0.1 0.1 0.1
v -0.1 -0.1 0.1
v -0.1 -0.2 0.1
v 0 0.3 0.1
v 0 0.2 0.1
v 0 0.1 0.1
v 0 -0.1 0.1
v 0 -0.2 0.1
v 0 -0.3 0.1
v 0.1 0.3 0.1
v 0.1 0.2 0.1
v 0.1 0.1 0.1
v 0.1 -0.1 0.1
v 0.1 -0.2 0.1
v 0.1 -0.3 0.1
v 0.2 0.2 0.1
v 0.2 0.1 0.1
v 0.2 -0.1 0.1
v 0.2 -0.2 0.1
v 0 0.4 -0.1
v 0.1 0.4 -0.1
v 0 0.4 0
v 0.1 0.4 0
v 0 0.3 -0.2
v 0.1 0.3 -0.2
v -0.1 0.3 -0.1
v 0 0.3 -0.1
v 0.1 0.3 -0.1
v 0.2 0.3 -0.1
v -0.1 0.3 0
v 0 0.3 0
v 0.1 0.3 0
v 0.2 0.3 0
v 0 0.3 0.1
v 0.1 0.3 0.1
v -0.1 0.2 -0.2
v 0 0.2 -0.2
v 0.1 0.2 -0.2
v 0.2 0.2 -0.2
v -0.1 0.2 -0.1
v 0 0.2 -0.1
v 0.1 0.2 -0.1
v 0.2 0.2 -0.1
v -0.1 0.2 0
v 0 0.2 0
v 0.1 0.2 0
v 0.2 0.2 0
v -0.1 0.2 0.1
v 0 0.2 0.1
v 0.1 0.2 0.1
v 0.2 0.2 0.1
v -0.1 -0.1 -0.2
v 0 -0.1 -0.2
v 0.1 -0.1 -0.2
v 0.2 -0.1 -0.2
v -0.1 -0.1 -0.1
v 0 -0.1 -0.1
v 0.1 -0.1 -0.1
v 0.2 -0.1 -0.1
v -0.1 -0.1 0
v 0 -0.1 0
v 0.1 -0.1 0
v 0.2 -0.1 0
v -0.1 -0.1 0.1
v 0 -0.1 0.1
v 0.1 -0.1 0.1
v 0.2 -0.1 0.1
v -0.1 0.1 -0.2
v 0 0.1 -0.2
v 0.1 0.1 -0.2
v 0.2 0.1 -0.2
v -0.1 0.1 -0.1
v 0 0.1 -0.1
v 0.1 0.1 -0.1
v 0.2 0.1 -0.1
v -0.1 0.1 0
v 0 0.1 0
v 0.1 0.1 0
v 0.2 0.1 0
v -0.1 0.1 0.1
v 0 0.1 0.1
v 0.1 0.1 0.1
v 0.2 0.1 0.1
v -0.1 -0.2 -0.2
v 0 -0.2 -0.2
v 0.1 -0.2 -0.2
v 0.2 -0.2 -0.2
v -0.1 -0.2 -0.1
v 0 -0.2 -0.1
v 0.1 -0.2 -0.1
v 0.2 -0.2 -0.1
v -0.1 -0.2 0
v 0 -0.2 0
v 0.1 -0.2 0
v 0.2 -0.2 0
v -0.1 -0.2 0.1
v 0 -0.2 0.1
v 0.1 -0.2 0.1
v 0.2 -0.2 0.1
v 0 -0.3 -0.2
v 0.1 -0.3 -0.2
v -0.1 -0.3 -0.1
v 0 -0.3 -0.1
v 0.1 -0.3 -0.1
v 0.2 -0.3 -0.1
v -0.1 -0.3 0
v 0 -0.3 0
v 0.1 -0.3 0
v 0.2 -0.3 0
v 0 -0.3 0.1
v 0.1 -0.3 0.1
v 0 -0.4 -0.1
v 0.1 -0.4 -0.1
v 0 -0.4 0
v 0.1 -0.4 0

# faces
f 4/3/1 2/3/1 1/3/1
f 5/3/1 2/3/1 4/3/1
f 7/2/1 4/2/1 3/2/1
f 8/3/1 5/3/1 4/3/1
f 8/2/1 4/2/1 7/2/1
f 9/2/1 6/2/1 5/2/1
f 9/3/1 5/3/1 8/3/1
f 10/2/1 6/2/1 9/2/1
f 12/2/1 9/2/1 8/2/1
f 13/2/1 9/2/1 12/2/1
f 15/2/1 12/2/1 11/2/1
f 16/3/1 13/3/1 12/3/1
f 16/2/1 12/2/1 15/2/1
f 17/2/1 14/2/1 13/2/1
f 17/3/1 13/3/1 16/3/1
f 18/2/1 14/2/1 17/2/1
f 19/3/1 17/3/1 16/3/1
f 20/3/1 17/3/1 19/3/1
f 24/1/1 22/1/1 21/1/1
f 25/1/1 22/1/1 24/1/1
f 27/3/1 24/3/1 23/3/1
f 28/3/1 24/3/1 27/3/1
f 29/3/1 26/3/1 25/3/1
f 30/3/1 26/3/1 29/3/1
f 35/2/1 32/2/1 31/2/1
f 36/2/1 32/2/1 35/2/1
f 37/2/1 34/2/1 33/2/1
f 38/2/1 34/2/1 37/2/1
f 43/3/1 40/3/1 39/3/1
f 44/3/1 40/3/1 43/3/1
f 45/3/1 42/3/1 41/3/1
f 46/3/1 42/3/1 45/3/1
f 47/1/1 45/1/1 44/1/1
f 48/1/1 45/1/1 47/1/1
f 49/1/2 50/1/2 52/1/2
f 52/1/2 50/1/2 53/1/2
f 51/3/2 52/3/2 55/3/2
f 55/3/2 52/3/2 56/3/2
f 53/3/2 54/3/2 57/3/2
f 57/3/2 54/3/2 58/3/2
f 59/2/2 60/2/2 63/2/2
f 63/2/2 60/2/2 64/2/2
f 61/2/2 62/2/2 65/2/2
f 65/2/2 62/2/2 66/2/2
f 67/3/2 68/3/2 71/3/2
f 71/3/2 68/3/2 72/3/2
f 69/3/2 70/3/2 73/3/2
f 73/3/2 70/3/2 74/3/2
f 72/1/2 73/1/2 75/1/2
f 75/1/2 73/1/2 76/1/2
f 77/3/2 78/3/2 80/3/2
f 80/3/2 78/3/2 81/3/2
f 79/2/2 80/2/2 83/2/2
f 80/3/2 81/3/2 84/3/2
f 83/2/2 80/2/2 84/2/2
f 81/2/2 82/2/2 85/2/2
f 84/3/2 81/3/2 85/3/2
f 85/2/2 82/2/2 86/2/2
f 84/2/2 85/2/2 88/2/2
f 88/2/2 85/2/2 89/2/2
f 87/2/2 88/2/2 91/2/2
f 88/3/2 89/3/2 92/3/2
f 91/2/2 88/2/2 92/2/2
f 89/2/2 90/2/2 93/2/2
f 92/3/2 89/3/2 93/3/2
f 93/2/2 90/2/2 94/2/2
f 92/3/2 93/3/2 95/3/2
f 95/3/2 93/3/2 96/3/2
f 102/2/3 98/2/3 97/2/3
f 103/2/3 98/2/3 102/2/3
f 104/2/3 100/2/3 99/2/3
f 105/2/3 100/2/3 104/2/3
f 107/3/3 103/3/3 102/3/3
f 107/3/3 102/3/3 101/3/3
f 108/3/3 103/3/3 107/3/3
f 109/2/3 104/2/3 103/2/3
f 109/3/3 103/3/3 108/3/3
f 110/3/3 106/3/3 105/3/3
f 110/2/3 104/2/3 109/2/3
f 110/3/3 105/3/3 104/3/3
f 111/3/3 106/3/3 110/3/3
f 112/3/3 106/3/3 111/3/3
f 113/2/3 109/2/3 108/2/3
f 114/2/3 109/2/3 113/2/3
f 115/2/3 111/2/3 110/2/3
f 116/2/3 111/2/3 115/2/3
f 124/3/3 118/3/3 117/3/3
f 125/3/3 118/3/3 124/3/3
f 126/2/3 120/2/3 119/2/3
f 127/2/3 120/2/3 126/2/3
f 128/3/3 122/3/3 121/3/3
f 129/3/3 122/3/3 128/3/3
f 131/1/3 124/1/3 123/1/3
f 132/1/3 124/1/3 131/1/3
f 137/1/3 130/1/3 129/1/3
f 138/1/3 130/1/3 137/1/3
f 139/3/3 133/3/3 132/3/3
f 140/3/3 133/3/3 139/3/3
f 141/2/3 135/2/3 134/2/3
f 142/2/3 135/2/3 141/2/3
f 143/3/3 137/3/3 136/3/3
f 144/3/3 137/3/3 143/3/3
f 145/3/4 146/3/4 152/3/4
f 152/3/4 146/3/4 153/3/4
f 147/2/4 148/2/4 154/2/4
f 154/2/4 148/2/4 155/2/4
f 149/3/4 150/3/4 156/3/4
f 156/3/4 150/3/4 157/3/4
f 151/1/4 152/1/4 159/1/4
f 159/1/4 152/1/4 160/1/4
f 157/1/4 158/1/4 165/1/4
f 165/1/4 158/1/4 166/1/4
f 160/3/4 161/3/4 167/3/4
f 167/3/4 161/3/4 168/3/4
f 162/2/4 163/2/4 169/2/4
f 169/2/4 163/2/4 170/2/4
f 164/3/4 165/3/4 171/3/4
f 171/3/4 165/3/4 172/3/4
f 173/2/4 174/2/4 178/2/4
f 178/2/4 174/2/4 179/2/4
f 175/2/4 176/2/4 180/2/4
f 180/2/4 176/2/4 181/2/4
f 178/3/4 179/3/4 183/3/4
f 177/3/4 178/3/4 183/3/4
f 183/3/4 179/3/4 184/3/4
f 179/2/4 180/2/4 185/2/4
f 184/3/4 179/3/4 185/3/4
f 181/3/4 182/3/4 186/3/4
f 185/2/4 180/2/4 186/2/4
f 180/3/4 181/3/4 186/3/4
f 186/3/4 182/3/4 187/3/4
f 187/3/4 182/3/4 188/3/4
f 184/2/4 185/2/4 189/2/4
f 189/2/4 185/2/4 190/2/4
f 186/2/4 187/2/4 191/2/4
f 191/2/4 187/2/4 192/2/4
f 195/1/5 194/1/5 193/1/5
f 196/1/5 194/1/5 195/1/5
f 200/3/5 198/3/5 197/3/5
f 201/3/5 198/3/5 200/3/5
f 203/3/5 200/3/5 199/3/5
f 204/3/5 200/3/5 203/3/5
f 205/3/5 202/3/5 201/3/5
f 206/3/5 202/3/5 205/3/5
f 207/3/5 205/3/5 204/3/5
f 208/3/5 205/3/5 207/3/5
f 213/2/5 210/2/5 209/2/5
f 214/2/5 210/2/5 213/2/5
f 215/2/5 212/2/5 211/2/5
f 216/2/5 212/2/5 215/2/5
f 221/2/5 218/2/5 217/2/5
f 222/2/5 218/2/5 221/2/5
f 223/2/5 220/2/5 219/2/5
f 224/2/5 220/2/5 223/2/5
f 229/2/5 226/2/5 225/2/5
f 230/2/5 226/2/5 229/2/5
f 231/2/5 228/2/5 227/2/5
f 232/2/5 228/2/5 231/2/5
f 237/2/5 234/2/5 233/2/5
f 238/2/5 234/2/5 237/2/5
f 239/2/5 236/2/5 235/2/5
f 240/2/5 236/2/5 239/2/5
f 241/2/6 242/2/6 245/2/6
f 245/2/6 242/2/6 246/2/6
f 243/2/6 244/2/6 247/2/6
f 247/2/6 244/2/6 248/2/6
f 249/2/6 250/2/6 253/2/6
f 253/2/6 250/2/6 254/2/6
f 251/2/6 252/2/6 255/2/6
f 255/2/6 252/2/6 256/2/6
f 257/2/6 258/2/6 261/2/6
f 261/2/6 258/2/6 262/2/6
f 259/2/6 260/2/6 263/2/6
f 263/2/6 260/2/6 264/2/6
f 265/2/6 266/2/6 269/2/6
f 269/2/6 266/2/6 270/2/6
f 267/2/6 268/2/6 271/2/6
f 271/2/6 268/2/6 272/2/6
f 273/3/6 274/3/6 276/3/6
f 276/3/6 274/3/6 277/3/6
f 275/3/6 276/3/6 279/3/6
f 279/3/6 276/3/6 280/3/6
f 277/3/6 278/3/6 281/3/6
f 281/3/6 278/3/6 282/3/6
f 280/3/6 281/3/6 283/3/6
f 283/3/6 281/3/6 284/3/6
f 285/1/6 286/1/6 287/1/6
f 287/1/6 286/1/6 288/1/6
