# MagicaVoxel @ Ephtracy

# group
o 

# material
mtllib Enemy-10.mtl
usemtl palette

# normals
vn 1 0 0
vn -1 0 0
vn 0 0 1
vn 0 0 -1
vn 0 1 0
vn 0 -1 0

# texcoords
vt 0.845703 0.5
vt 0.986328 0.5
vt 0.990234 0.5
vt 0.994141 0.5

# verts
v 0.2 0.5 0
v 0.2 0.5 -0.1
v 0.2 0.4 0
v 0.2 0.4 -0.1
v 0.2 0.2 0
v 0.2 0.2 -0.1
v 0.2 -0.1 0.1
v 0.2 -0.1 0
v 0.2 -0.1 -0.1
v 0.2 -0.1 -0.2
v 0.2 -0.2 0.1
v 0.2 -0.2 0
v 0.2 -0.2 -0.1
v 0.2 -0.2 -0.2
v 0.2 -0.3 0
v 0.2 -0.3 -0.1
v 0.1 0.4 0
v 0.1 0.4 -0.1
v 0.1 0.2 0.1
v 0.1 0.2 0
v 0.1 0.2 -0.1
v 0.1 0.2 -0.2
v 0.1 -0.1 0.1
v 0.1 -0.1 0
v 0.1 -0.1 -0.1
v 0.1 -0.1 -0.2
v 0.1 -0.2 0.1
v 0.1 -0.2 0
v 0.1 -0.2 -0.1
v 0.1 -0.2 -0.2
v 0.1 -0.3 0.1
v 0.1 -0.3 0
v 0.1 -0.3 -0.1
v 0.1 -0.3 -0.2
v 0.1 -0.4 0
v 0.1 -0.4 -0.1
v 0.1 0.5 0
v 0.1 0.5 -0.1
v 0.1 0.4 0
v 0.1 0.4 -0.1
v 0 0.4 0
v 0 0.4 -0.1
v 0 0.2 0.1
v 0 0.2 0
v 0 0.2 -0.1
v 0 0.2 -0.2
v 0 -0.1 0.1
v 0 -0.1 0
v 0 -0.1 -0.1
v 0 -0.1 -0.2
v 0 -0.2 0.1
v 0 -0.2 0
v 0 -0.2 -0.1
v 0 -0.2 -0.2
v 0 -0.3 0.1
v 0 -0.3 0
v 0 -0.3 -0.1
v 0 -0.3 -0.2
v 0 -0.4 0
v 0 -0.4 -0.1
v -0.1 0.2 0
v -0.1 0.2 -0.1
v -0.1 -0.1 0.1
v -0.1 -0.1 0
v -0.1 -0.1 -0.1
v -0.1 -0.1 -0.2
v -0.1 -0.2 0.1
v -0.1 -0.2 0
v -0.1 -0.2 -0.1
v -0.1 -0.2 -0.2
v -0.1 -0.3 0
v -0.1 -0.3 -0.1
v 0.2 -0.1 0.1
v 0.2 -0.2 0.1
v 0.1 0.2 0.1
v 0.1 -0.1 0.1
v 0.1 -0.2 0.1
v 0.1 -0.3 0.1
v 0 0.2 0.1
v 0 -0.1 0.1
v 0 -0.2 0.1
v 0 -0.3 0.1
v -0.1 -0.1 0.1
v -0.1 -0.2 0.1
v 0.2 0.5 0
v 0.2 0.4 0
v 0.2 0.2 0
v 0.2 -0.1 0
v 0.2 -0.2 0
v 0.2 -0.3 0
v 0.1 0.5 0
v 0.1 0.4 0
v 0.1 0.2 0
v 0.1 -0.1 0
v 0.1 -0.2 0
v 0.1 -0.3 0
v 0.1 -0.4 0
v 0 0.4 0
v 0 0.2 0
v 0 -0.1 0
v 0 -0.2 0
v 0 -0.3 0
v 0 -0.4 0
v -0.1 0.2 0
v -0.1 -0.1 0
v -0.1 -0.2 0
v -0.1 -0.3 0
v 0.2 0.5 -0.1
v 0.2 0.4 -0.1
v 0.2 0.2 -0.1
v 0.2 -0.1 -0.1
v 0.2 -0.2 -0.1
v 0.2 -0.3 -0.1
v 0.1 0.5 -0.1
v 0.1 0.4 -0.1
v 0.1 0.2 -0.1
v 0.1 -0.1 -0.1
v 0.1 -0.2 -0.1
v 0.1 -0.3 -0.1
v 0.1 -0.4 -0.1
v 0 0.4 -0.1
v 0 0.2 -0.1
v 0 -0.1 -0.1
v 0 -0.2 -0.1
v 0 -0.3 -0.1
v 0 -0.4 -0.1
v -0.1 0.2 -0.1
v -0.1 -0.1 -0.1
v -0.1 -0.2 -0.1
v -0.1 -0.3 -0.1
v 0.2 -0.1 -0.2
v 0.2 -0.2 -0.2
v 0.1 0.2 -0.2
v 0.1 -0.1 -0.2
v 0.1 -0.2 -0.2
v 0.1 -0.3 -0.2
v 0 0.2 -0.2
v 0 -0.1 -0.2
v 0 -0.2 -0.2
v 0 -0.3 -0.2
v -0.1 -0.1 -0.2
v -0.1 -0.2 -0.2
v 0.2 0.5 0
v 0.1 0.5 0
v 0.2 0.5 -0.1
v 0.1 0.5 -0.1
v 0.1 0.4 0
v 0 0.4 0
v 0.1 0.4 -0.1
v 0 0.4 -0.1
v 0.1 0.2 0.1
v 0 0.2 0.1
v 0.2 0.2 0
v 0.1 0.2 0
v 0 0.2 0
v -0.1 0.2 0
v 0.2 0.2 -0.1
v 0.1 0.2 -0.1
v 0 0.2 -0.1
v -0.1 0.2 -0.1
v 0.1 0.2 -0.2
v 0 0.2 -0.2
v 0.2 -0.1 0.1
v 0.1 -0.1 0.1
v 0 -0.1 0.1
v -0.1 -0.1 0.1
v 0.2 -0.1 0
v 0.1 -0.1 0
v 0 -0.1 0
v -0.1 -0.1 0
v 0.2 -0.1 -0.1
v 0.1 -0.1 -0.1
v 0 -0.1 -0.1
v -0.1 -0.1 -0.1
v 0.2 -0.1 -0.2
v 0.1 -0.1 -0.2
v 0 -0.1 -0.2
v -0.1 -0.1 -0.2
v 0.2 0.4 0
v 0.1 0.4 0
v 0.2 0.4 -0.1
v 0.1 0.4 -0.1
v 0.2 -0.2 0.1
v 0.1 -0.2 0.1
v 0 -0.2 0.1
v -0.1 -0.2 0.1
v 0.2 -0.2 0
v 0.1 -0.2 0
v 0 -0.2 0
v -0.1 -0.2 0
v 0.2 -0.2 -0.1
v 0.1 -0.2 -0.1
v 0 -0.2 -0.1
v -0.1 -0.2 -0.1
v 0.2 -0.2 -0.2
v 0.1 -0.2 -0.2
v 0 -0.2 -0.2
v -0.1 -0.2 -0.2
v 0.1 -0.3 0.1
v 0 -0.3 0.1
v 0.2 -0.3 0
v 0.1 -0.3 0
v 0 -0.3 0
v -0.1 -0.3 0
v 0.2 -0.3 -0.1
v 0.1 -0.3 -0.1
v 0 -0.3 -0.1
v -0.1 -0.3 -0.1
v 0.1 -0.3 -0.2
v 0 -0.3 -0.2
v 0.1 -0.4 0
v 0 -0.4 0
v 0.1 -0.4 -0.1
v 0 -0.4 -0.1

# faces
f 3/2/1 2/2/1 1/2/1
f 4/2/1 2/2/1 3/2/1
f 8/3/1 6/3/1 5/3/1
f 9/3/1 6/3/1 8/3/1
f 11/3/1 8/3/1 7/3/1
f 12/4/1 9/4/1 8/4/1
f 12/3/1 8/3/1 11/3/1
f 13/3/1 10/3/1 9/3/1
f 13/4/1 9/4/1 12/4/1
f 14/3/1 10/3/1 13/3/1
f 15/4/1 13/4/1 12/4/1
f 16/4/1 13/4/1 15/4/1
f 20/2/1 18/2/1 17/2/1
f 21/2/1 18/2/1 20/2/1
f 23/3/1 20/3/1 19/3/1
f 24/3/1 20/3/1 23/3/1
f 25/3/1 22/3/1 21/3/1
f 26/3/1 22/3/1 25/3/1
f 31/4/1 28/4/1 27/4/1
f 32/4/1 28/4/1 31/4/1
f 33/4/1 30/4/1 29/4/1
f 34/4/1 30/4/1 33/4/1
f 35/1/1 33/1/1 32/1/1
f 36/1/1 33/1/1 35/1/1
f 37/2/2 38/2/2 39/2/2
f 39/2/2 38/2/2 40/2/2
f 41/2/2 42/2/2 44/2/2
f 44/2/2 42/2/2 45/2/2
f 43/3/2 44/3/2 47/3/2
f 47/3/2 44/3/2 48/3/2
f 45/3/2 46/3/2 49/3/2
f 49/3/2 46/3/2 50/3/2
f 51/4/2 52/4/2 55/4/2
f 55/4/2 52/4/2 56/4/2
f 53/4/2 54/4/2 57/4/2
f 57/4/2 54/4/2 58/4/2
f 56/1/2 57/1/2 59/1/2
f 59/1/2 57/1/2 60/1/2
f 61/3/2 62/3/2 64/3/2
f 64/3/2 62/3/2 65/3/2
f 63/3/2 64/3/2 67/3/2
f 64/4/2 65/4/2 68/4/2
f 67/3/2 64/3/2 68/3/2
f 65/3/2 66/3/2 69/3/2
f 68/4/2 65/4/2 69/4/2
f 69/3/2 66/3/2 70/3/2
f 68/4/2 69/4/2 71/4/2
f 71/4/2 69/4/2 72/4/2
f 76/3/3 74/3/3 73/3/3
f 77/3/3 74/3/3 76/3/3
f 79/3/3 76/3/3 75/3/3
f 80/4/3 78/4/3 77/4/3
f 80/3/3 76/3/3 79/3/3
f 80/4/3 77/4/3 76/4/3
f 81/4/3 78/4/3 80/4/3
f 82/4/3 78/4/3 81/4/3
f 83/3/3 81/3/3 80/3/3
f 84/3/3 81/3/3 83/3/3
f 91/2/3 86/2/3 85/2/3
f 92/2/3 86/2/3 91/2/3
f 93/3/3 88/3/3 87/3/3
f 94/3/3 88/3/3 93/3/3
f 95/4/3 90/4/3 89/4/3
f 96/4/3 90/4/3 95/4/3
f 98/2/3 93/2/3 92/2/3
f 99/2/3 93/2/3 98/2/3
f 102/1/3 97/1/3 96/1/3
f 103/1/3 97/1/3 102/1/3
f 104/3/3 100/3/3 99/3/3
f 105/3/3 100/3/3 104/3/3
f 106/4/3 102/4/3 101/4/3
f 107/4/3 102/4/3 106/4/3
f 108/2/4 109/2/4 114/2/4
f 114/2/4 109/2/4 115/2/4
f 110/3/4 111/3/4 116/3/4
f 116/3/4 111/3/4 117/3/4
f 112/4/4 113/4/4 118/4/4
f 118/4/4 113/4/4 119/4/4
f 115/2/4 116/2/4 121/2/4
f 121/2/4 116/2/4 122/2/4
f 119/1/4 120/1/4 125/1/4
f 125/1/4 120/1/4 126/1/4
f 122/3/4 123/3/4 127/3/4
f 127/3/4 123/3/4 128/3/4
f 124/4/4 125/4/4 129/4/4
f 129/4/4 125/4/4 130/4/4
f 131/3/4 132/3/4 134/3/4
f 134/3/4 132/3/4 135/3/4
f 133/3/4 134/3/4 137/3/4
f 135/4/4 136/4/4 138/4/4
f 137/3/4 134/3/4 138/3/4
f 134/4/4 135/4/4 138/4/4
f 138/4/4 136/4/4 139/4/4
f 139/4/4 136/4/4 140/4/4
f 138/3/4 139/3/4 141/3/4
f 141/3/4 139/3/4 142/3/4
f 145/2/5 144/2/5 143/2/5
f 146/2/5 144/2/5 145/2/5
f 149/2/5 148/2/5 147/2/5
f 150/2/5 148/2/5 149/2/5
f 154/3/5 152/3/5 151/3/5
f 155/3/5 152/3/5 154/3/5
f 157/3/5 154/3/5 153/3/5
f 158/3/5 154/3/5 157/3/5
f 159/3/5 156/3/5 155/3/5
f 160/3/5 156/3/5 159/3/5
f 161/3/5 159/3/5 158/3/5
f 162/3/5 159/3/5 161/3/5
f 167/3/5 164/3/5 163/3/5
f 168/3/5 164/3/5 167/3/5
f 169/3/5 166/3/5 165/3/5
f 170/3/5 166/3/5 169/3/5
f 175/3/5 172/3/5 171/3/5
f 176/3/5 172/3/5 175/3/5
f 177/3/5 174/3/5 173/3/5
f 178/3/5 174/3/5 177/3/5
f 179/2/6 180/2/6 181/2/6
f 181/2/6 180/2/6 182/2/6
f 183/3/6 184/3/6 187/3/6
f 187/3/6 184/3/6 188/3/6
f 185/3/6 186/3/6 189/3/6
f 189/3/6 186/3/6 190/3/6
f 191/3/6 192/3/6 195/3/6
f 195/3/6 192/3/6 196/3/6
f 193/3/6 194/3/6 197/3/6
f 197/3/6 194/3/6 198/3/6
f 199/4/6 200/4/6 202/4/6
f 202/4/6 200/4/6 203/4/6
f 201/4/6 202/4/6 205/4/6
f 205/4/6 202/4/6 206/4/6
f 203/4/6 204/4/6 207/4/6
f 207/4/6 204/4/6 208/4/6
f 206/4/6 207/4/6 209/4/6
f 209/4/6 207/4/6 210/4/6
f 211/1/6 212/1/6 213/1/6
f 213/1/6 212/1/6 214/1/6
